<svg width="1000" height="423" viewBox="0 0 1000 423" fill="none" xmlns="http://www.w3.org/2000/svg">
<path d="M296.176 130.965V73.5718L445.06 222.456V102.541H485.666V320.455L296.176 130.965Z" fill="#1E3148"/>
<path d="M499.195 197.282V102.541H539.801V197.29C539.801 212.272 545.081 225.04 555.634 235.592C566.194 246.153 578.962 251.425 593.936 251.425C608.911 251.425 621.686 246.145 632.239 235.592C642.799 225.032 648.072 212.264 648.072 197.29V102.541H688.677V251.425C688.677 277.594 679.424 299.927 660.927 318.424C642.43 336.922 620.097 346.174 593.928 346.174V305.569C608.902 305.569 621.678 300.288 632.231 289.736C635.12 286.847 637.647 283.781 639.814 280.531C626.1 288.203 610.804 292.039 593.928 292.039C567.759 292.039 545.426 282.794 526.929 264.289C508.448 245.784 499.195 223.451 499.195 197.282Z" fill="#1E3148"/>
<path d="M702.224 197.282C702.224 171.113 711.468 148.78 729.973 130.283C748.471 111.786 770.804 102.533 796.973 102.533V143.139C781.99 143.139 769.223 148.419 758.67 158.972C748.11 169.532 742.837 182.3 742.837 197.274V292.023H702.232V197.282H702.224Z" fill="#1E3148"/>
<path d="M972.25 130.283C990.747 148.78 1000 171.113 1000 197.282C1000 223.451 990.747 245.784 972.25 264.281C953.753 282.778 931.42 292.031 905.251 292.031C879.082 292.031 856.749 282.786 838.252 264.281C819.755 245.784 810.502 223.451 810.502 197.282C810.502 171.113 819.746 148.78 838.252 130.283C856.749 111.786 879.082 102.533 905.251 102.533C931.42 102.541 953.753 111.786 972.25 130.283ZM905.251 143.147C890.269 143.147 877.501 148.427 866.948 158.98C856.388 169.54 851.116 182.308 851.116 197.282C851.116 212.264 856.396 225.032 866.948 235.585C877.509 246.145 890.277 251.418 905.251 251.418C920.225 251.418 933.001 246.137 943.553 235.585C954.114 225.024 959.386 212.256 959.386 197.282C959.386 182.308 954.106 169.532 943.553 158.98C932.993 148.419 920.225 143.147 905.251 143.147Z" fill="#1E3148"/>
<path d="M147.235 0C155.477 8.29765 162.884 15.8008 170.339 23.2639C201.146 54.1193 231.937 84.9907 262.793 115.798C279.918 132.891 290.815 153.266 294.114 177.22C299.009 212.826 288.922 243.938 263.675 269.626C237.98 295.77 211.859 321.498 185.867 347.346C184.069 349.127 183.219 350.909 183.395 353.429C183.724 358.035 183.363 362.737 184.142 367.247C186.132 378.739 196.604 387.325 208.296 387.51C215.422 387.614 222.556 387.63 229.682 387.695C230.22 387.703 230.758 387.791 231.472 387.855C231.472 399.499 231.472 411.023 231.472 422.506C231.239 422.635 231.079 422.803 230.918 422.803C220.654 422.659 210.262 423.493 200.159 422.137C174.351 418.686 154.361 399.427 149.234 373.94C148.134 368.459 147.982 362.729 147.934 357.104C147.749 335.718 147.789 314.324 147.741 292.938C147.741 291.967 147.653 290.988 147.589 289.551C131.507 305.785 115.778 321.658 99.3835 338.206C94.8977 333.447 91.0137 329.121 86.913 325.013C68.5522 306.588 50.1032 288.243 31.7344 269.826C14.9946 253.046 4.51423 232.92 1.24011 209.488C-3.75132 173.769 6.3118 142.529 31.6702 116.825C69.3146 78.6672 107.384 40.9346 145.253 2.99326C145.96 2.26301 146.393 1.27594 147.235 0ZM147.556 97.4934C146.313 98.6971 145.614 99.3552 144.932 100.037C115.08 129.882 85.2198 159.734 55.3675 189.578C52.4224 192.523 49.381 195.38 46.5642 198.446C41.9901 203.421 44.4216 211.036 51.01 212.521C52.3501 212.818 53.7625 212.866 55.1428 212.866C84.7704 212.882 114.398 212.882 144.026 212.882C145.181 212.882 146.337 212.882 147.781 212.882C147.781 238.353 147.781 263.366 147.781 288.38C148.166 288.66 148.544 288.949 148.929 289.23C149.41 288.339 149.723 287.272 150.413 286.582C171.061 265.878 191.741 245.206 212.421 224.534C224.33 212.625 236.247 200.725 248.131 188.8C251.422 185.493 251.975 181.947 249.937 178.223C247.931 174.572 244.601 173.777 240.765 173.785C210.952 173.817 181.14 173.801 151.32 173.801C150.165 173.801 149.001 173.801 147.548 173.801C147.556 148.347 147.556 123.333 147.556 97.4934Z" fill="url(#paint0_linear_615_26141)"/>
<defs>
<linearGradient id="paint0_linear_615_26141" x1="-0.00373394" y1="211.452" x2="295.306" y2="211.452" gradientUnits="userSpaceOnUse">
<stop stop-color="#00A99D"/>
<stop offset="1" stop-color="#22B573"/>
</linearGradient>
</defs>
</svg>
